<svg class="uitk-icon uitk-layout-flex-item-align-self-center uitk-layout-flex-item" aria-hidden="true" viewBox="0 0 24 24" xmlns="http://www.w3.org/2000/svg" xmlns:xlink="http://www.w3.org/1999/xlink"><path d="m3.64 14.26 2.86.95 4.02-4.02-8-4.59 1.16-1.16c.1-.1.26-.14.41-.1l9.3 2.98c1.58-1.58 3.15-3.2 4.77-4.75.31-.33.7-.58 1.16-.73.45-.16.87-.27 1.25-.34.55-.05.98.4.93.93-.07.38-.18.8-.34 1.25-.15.46-.4.85-.73 1.16l-4.75 4.78 2.97 9.29c.05.15 0 .29-.1.41l-1.17 1.16-4.57-8.02L8.8 17.5l.95 2.84L8.6 21.5l-2.48-3.62L2.5 15.4l1.14-1.14z"></path></svg>