<svg width="32" height="32" viewBox="0 0 32 32" fill="none" xmlns="http://www.w3.org/2000/svg">
<rect width="32" height="32" rx="16" fill="#BDC4CD"/>
<g clip-path="url(#clip0_311_12965)">
<mask id="mask0_311_12965" style="mask-type:luminance" maskUnits="userSpaceOnUse" x="9" y="8" width="14" height="16">
<path d="M9 8H22.44V24H9V8Z" fill="white"/>
</mask>
<g mask="url(#mask0_311_12965)">
<path d="M18.8924 8H19.01C19.1038 9.128 18.66 9.97133 18.121 10.5827C17.5918 11.1893 16.868 11.7767 15.6955 11.6873C15.6171 10.5753 16.0616 9.794 16.6006 9.18533C17.099 8.61733 18.0146 8.11333 18.8924 8ZM22.44 19.7447V19.7767C22.1103 20.7447 21.6406 21.5747 21.068 22.3447C20.5444 23.044 19.9032 23.9847 18.758 23.9847C17.7682 23.9847 17.1116 23.3673 16.098 23.3507C15.0235 23.3327 14.4334 23.8653 13.452 24H13.1181C12.3971 23.8993 11.8161 23.3447 11.3926 22.8467C10.1438 21.372 9.1792 19.468 9 17.032V16.316C9.0756 14.572 9.9485 13.1547 11.1091 12.4673C11.7216 12.1013 12.563 11.7907 13.501 11.9293C13.9028 11.9907 14.313 12.1227 14.6735 12.2553C15.0144 12.382 15.4407 12.608 15.8446 12.596C16.1176 12.588 16.3906 12.4493 16.6664 12.352C17.4742 12.0687 18.2659 11.744 19.3096 11.8967C20.564 12.0807 21.4544 12.6213 22.0046 13.4567C20.9441 14.112 20.1048 15.1 20.2483 16.7873C20.375 18.3193 21.2934 19.216 22.44 19.7447Z" fill="white"/>
</g>
</g>
<defs>
<clipPath id="clip0_311_12965">
<rect width="14" height="16" fill="white" transform="translate(9 8)"/>
</clipPath>
</defs>
</svg>
