<?xml version="1.0" encoding="utf-8"?>
<!-- Generator: Adobe Illustrator 27.8.0, SVG Export Plug-In . SVG Version: 6.00 Build 0)  -->
<svg version="1.1" id="Layer_1" xmlns="http://www.w3.org/2000/svg" xmlns:xlink="http://www.w3.org/1999/xlink" x="0px" y="0px"
	 viewBox="0 0 179.1 179.4" style="enable-background:new 0 0 179.1 179.4;" xml:space="preserve">
<g>
	<path d="M14.2,89.4c0-14.4,0-28.7,0-43.1c0-19.3,12.8-32,32.1-32.1c11.5,0,23,0,34.6,0c4.9,0,8.1,2.6,8.6,6.7
		c0.6,4.8-3,8.5-8.5,8.5c-11.4,0.1-22.8,0-34.2,0c-11.7,0-17.3,5.6-17.4,17.2c0,28.7,0,57.5,0,86.2c0,11.2,5.7,17,16.9,17
		c28.8,0,57.6,0,86.4,0c11.2,0,16.9-5.8,16.9-17c0-11.5,0-23.1,0-34.6c0-4.6,2.2-7.6,6-8.5c4.4-1,9,2.2,9.1,7
		c0.2,13.8,0.7,27.6-0.3,41.3c-1.1,15.6-13.7,26.8-29.3,26.9c-30.3,0.3-60.7,0.3-91,0c-17.1-0.2-29.7-13.5-29.8-30.8
		C14.1,119.3,14.2,104.4,14.2,89.4z"/>
	<path d="M138.7,29.4c-6.5,0-12.2,0-17.9,0c-2.9,0-5.9,0.1-8.8-0.1c-4.4-0.3-7.4-3.4-7.5-7.4c-0.1-4.1,3.1-7.6,7.6-7.7
		c13.3-0.1,26.5-0.1,39.8,0c2.4,0,5,0.2,7.2,1.1c1.8,0.8,3.8,2.6,4.6,4.4c1,2.4,1.1,5.2,1.1,7.9c0.1,12.8,0.1,25.7,0,38.5
		c0,6.3-5.4,10.2-10.6,7.8c-3.4-1.6-4.6-4.5-4.6-8.1c0-7.5,0-15.1,0-22.6c0-0.7-0.1-1.3-0.2-2.7c-1.3,1.2-2.2,1.9-3.1,2.8
		c-16.8,16.8-33.5,33.7-50.4,50.4c-1.7,1.7-4.5,3.3-6.6,3.2c-2.3-0.2-4.9-2.1-6.4-4c-1.8-2.2-1.2-5.2,0.5-7.6c0.7-1,1.7-1.9,2.6-2.9
		c16.5-16.6,33.1-33.1,49.6-49.7C136.4,31.9,137.2,31,138.7,29.4z"/>
</g>
</svg>
