<svg width="16" height="16" viewBox="0 0 16 16" fill="none" xmlns="http://www.w3.org/2000/svg">
<g clip-path="url(#clip0_337_6867)">
<path d="M12.666 10.0002H13.3327C13.6863 10.0002 14.0254 9.85969 14.2755 9.60964C14.5255 9.35959 14.666 9.02045 14.666 8.66683V2.66683C14.666 2.31321 14.5255 1.97407 14.2755 1.72402C14.0254 1.47397 13.6863 1.3335 13.3327 1.3335H7.33268C6.97906 1.3335 6.63992 1.47397 6.38987 1.72402C6.13982 1.97407 5.99935 2.31321 5.99935 2.66683V3.3335M8.66602 6.00016H2.66602C1.92964 6.00016 1.33268 6.59712 1.33268 7.3335V13.3335C1.33268 14.0699 1.92964 14.6668 2.66602 14.6668H8.66602C9.4024 14.6668 9.99935 14.0699 9.99935 13.3335V7.3335C9.99935 6.59712 9.4024 6.00016 8.66602 6.00016Z" stroke="var(--lt_txt)" stroke-width="1.5" stroke-linecap="round" stroke-linejoin="round"/>
</g>
<defs>
<clipPath id="clip0_337_6867">
<rect width="16" height="16" fill="white" transform="matrix(-1 0 0 1 16 0)"/>
</clipPath>
</defs>
</svg>
