<svg width="16" height="16" viewBox="0 0 16 16" fill="none" xmlns="http://www.w3.org/2000/svg">
<path fill-rule="evenodd" clip-rule="evenodd" d="M1.33398 8.00016C1.33398 6.23205 2.03636 4.53636 3.28661 3.28612C4.53685 2.03587 6.23254 1.3335 8.00065 1.3335C9.76876 1.3335 11.4645 2.03587 12.7147 3.28612C13.9649 4.53636 14.6673 6.23205 14.6673 8.00016C14.6673 9.76827 13.9649 11.464 12.7147 12.7142C11.4645 13.9644 9.76876 14.6668 8.00065 14.6668C6.23254 14.6668 4.53685 13.9644 3.28661 12.7142C2.03636 11.464 1.33398 9.76827 1.33398 8.00016ZM8.94065 13.3335V12.0602C10.1007 11.8402 11.014 11.1735 11.0207 9.9535C11.0207 8.2735 9.58065 7.6935 8.23398 7.34683C6.88732 7.00016 6.45398 6.6335 6.45398 6.0735C6.45398 5.4335 7.05398 4.98016 8.05398 4.98016C9.10732 4.98016 9.50065 5.48683 9.53398 6.22683H10.8407C10.8282 5.69021 10.6331 5.17387 10.2877 4.76301C9.94231 4.35215 9.46715 4.07131 8.94065 3.96683V2.66683H7.16065V3.9535C6.01398 4.20016 5.08732 4.94683 5.08732 6.0935C5.08732 7.46016 6.22065 8.14016 7.87398 8.54016C9.36065 8.8935 9.65398 9.4135 9.65398 9.96683C9.65398 10.3735 9.36065 11.0268 8.05398 11.0268C6.83398 11.0268 6.35398 10.4802 6.28732 9.78016H4.98065C5.05398 11.0735 6.02065 11.8068 7.16065 12.0468V13.3335H8.94065Z" fill="#828282"/>
</svg>
