<svg width="12" height="12" viewBox="0 0 12 12" fill="none" xmlns="http://www.w3.org/2000/svg">
<path d="M3.922 12H4.421C4.50995 12.0002 4.59748 11.9777 4.67522 11.9344C4.75296 11.8912 4.8183 11.8287 4.865 11.753L7.949 6.8L11.182 6.781C11.394 6.78583 11.5993 6.70628 11.7527 6.55983C11.9061 6.41338 11.995 6.21202 12 6C11.995 5.78798 11.9061 5.58662 11.7527 5.44017C11.5993 5.29372 11.394 5.21417 11.182 5.219L7.949 5.2L4.866 0.246C4.81874 0.17066 4.75311 0.108562 4.67527 0.065533C4.59743 0.0225039 4.50994 -4.55646e-05 4.421 3.15138e-07H3.922C3.83714 -9.28321e-05 3.75353 0.0204645 3.67839 0.0598981C3.60325 0.0993318 3.53883 0.156457 3.4907 0.226345C3.44257 0.296233 3.41216 0.376783 3.40211 0.461046C3.39206 0.545308 3.40266 0.63075 3.433 0.71L5.149 5.2H2.296L1.632 3.87C1.59096 3.78798 1.52907 3.7182 1.45254 3.66765C1.37602 3.6171 1.28755 3.58756 1.196 3.582L0 3.509L1.097 6L0 8.491L1.196 8.418C1.28755 8.41244 1.37602 8.3829 1.45254 8.33235C1.52907 8.2818 1.59096 8.21202 1.632 8.13L2.296 6.8H5.149L3.433 11.29C3.40266 11.3692 3.39206 11.4547 3.40211 11.539C3.41216 11.6232 3.44257 11.7038 3.4907 11.7737C3.53883 11.8435 3.60325 11.9007 3.67839 11.9401C3.75353 11.9795 3.83714 12.0001 3.922 12Z" fill="#828282"/>
</svg>
