<svg width="12" height="12" viewBox="0 0 12 12" fill="none" xmlns="http://www.w3.org/2000/svg">
<path fill-rule="evenodd" clip-rule="evenodd" d="M1.33333 1.33333V10.6667H10.6667V6H12V10.6667C12 11.0203 11.8595 11.3594 11.6095 11.6095C11.3594 11.8595 11.0203 12 10.6667 12H1.33333C0.979711 12 0.640573 11.8595 0.390524 11.6095C0.140476 11.3594 0 11.0203 0 10.6667V1.33333C0 0.979711 0.140476 0.640573 0.390524 0.390524C0.640573 0.140476 0.979711 0 1.33333 0H6V1.33333H1.33333ZM7.33333 1.33333V0H12V4.66667H10.6667V2.27333L4.11333 8.82667L3.17333 7.88667L9.72667 1.33333H7.33333Z" fill="var(--lt_txt)"/>
</svg>
