<svg width="14" height="14" viewBox="0 0 14 14" fill="none" xmlns="http://www.w3.org/2000/svg">
<path fill-rule="evenodd" clip-rule="evenodd" d="M7.27398 0.720163L13.274 6.72016C13.7873 7.2335 13.794 8.10016 13.274 8.60683L8.60732 13.2735C8.35838 13.5227 8.02094 13.6633 7.66869 13.6646C7.31644 13.6658 6.97801 13.5276 6.72732 13.2802L0.727318 7.28016C0.602539 7.15612 0.503543 7.00862 0.436036 6.84614C0.368529 6.68367 0.333845 6.50944 0.333985 6.3335V1.66683C0.333985 0.933496 0.933985 0.333496 1.66732 0.333496H6.33398C6.70065 0.333496 7.03398 0.480163 7.27398 0.720163ZM1.66732 2.66683C1.66732 2.79815 1.69318 2.92819 1.74344 3.04951C1.79369 3.17084 1.86735 3.28108 1.96021 3.37394C2.05307 3.46679 2.16331 3.54045 2.28463 3.59071C2.40596 3.64096 2.536 3.66683 2.66732 3.66683C2.79864 3.66683 2.92868 3.64096 3.05 3.59071C3.17133 3.54045 3.28157 3.46679 3.37442 3.37394C3.46728 3.28108 3.54094 3.17084 3.5912 3.04951C3.64145 2.92819 3.66732 2.79815 3.66732 2.66683C3.66732 2.40161 3.56196 2.14726 3.37442 1.95972C3.18689 1.77219 2.93253 1.66683 2.66732 1.66683C2.4021 1.66683 2.14775 1.77219 1.96021 1.95972C1.77267 2.14726 1.66732 2.40161 1.66732 2.66683Z" fill="#828282"/>
</svg>
