<svg width="20" height="16" viewBox="0 0 20 16" fill="none" xmlns="http://www.w3.org/2000/svg">
<path d="M17.5007 0.5H2.50065C2.05862 0.5 1.6347 0.675595 1.32214 0.988155C1.00958 1.30072 0.833984 1.72464 0.833984 2.16667V12.1667C0.833984 13.075 1.59232 13.8333 2.50065 13.8333H6.66732V15.5H13.334V13.8333H17.5007C17.9412 13.8311 18.363 13.6546 18.6738 13.3422C18.9845 13.0299 19.159 12.6073 19.159 12.1667L19.1673 2.16667C19.1673 1.25833 18.409 0.5 17.5007 0.5ZM17.5007 12.1667H2.50065V2.16667H17.5007V12.1667ZM13.334 7.16667L7.50065 10.5V3.83333L13.334 7.16667Z" fill="#215E9A"/>
</svg>
